<svg width="48" height="48" viewBox="0 0 48 48" fill="none" xmlns="http://www.w3.org/2000/svg">
<g clip-path="url(#clip0_24_227)">
<path d="M41.4393 14.2972C46.5741 19.3154 46.6685 27.5461 41.6502 32.6808L33.2629 41.2628C28.2446 46.3975 20.014 46.492 14.8793 41.4737L6.29723 33.0863C1.16251 28.0681 1.06809 19.8375 6.08634 14.7028L14.4737 6.12071C19.492 0.985991 27.7226 0.891572 32.8573 5.90982L41.4393 14.2972ZM18.1469 18.1002C15.0588 21.26 15.1169 26.325 18.2767 29.4131C21.4365 32.5013 26.5015 32.4432 29.5897 29.2834C32.6778 26.1235 32.6197 21.0585 29.4599 17.9704C26.3001 14.8822 21.2351 14.9404 18.1469 18.1002Z" fill="#4CC3F2" fill-opacity="0.4"/>
</g>
<defs>
<clipPath id="clip0_24_227">
<rect width="48" height="48" fill="white"/>
</clipPath>
</defs>
</svg>
