<svg width="48" height="48" viewBox="0 0 48 48" fill="none" xmlns="http://www.w3.org/2000/svg">
<path d="M38.5 1C42.6421 1 46 4.35786 46 8.5V22.5C46 26.6421 42.6421 30 38.5 30C35.72 30 33.2954 28.4863 32 26.2393V39C32 43.4183 28.4183 47 24 47C20.6366 47 17.76 44.9236 16.5771 41.9834C15.5521 44.9047 12.7715 47 9.5 47C5.35786 47 2 43.6421 2 39.5V25.5C2 21.3579 5.35786 18 9.5 18C12.2797 18 14.7045 19.5132 16 21.7598V9C16 4.58172 19.5817 1 24 1C27.363 1 30.2387 3.07605 31.4219 6.01562C32.4471 3.09459 35.2287 1 38.5 1Z" fill="#FFB4C7"/>
</svg>
