<svg width="48" height="48" viewBox="0 0 48 48" fill="none" xmlns="http://www.w3.org/2000/svg">
<g clip-path="url(#clip0_73_435)">
<rect width="48" height="48" fill="white"/>
<path d="M25 26C25 25.4477 25.4477 25 26 25H47C47.5523 25 48 25.4477 48 26V47C48 47.5523 47.5523 48 47 48H26C25.4477 48 25 47.5523 25 47V26Z" fill="#FFD1B6"/>
<path d="M0 26C0 25.4477 0.447715 25 1 25H22C22.5523 25 23 25.4477 23 26V47C23 47.5523 22.5523 48 22 48H1C0.447715 48 0 47.5523 0 47V26Z" fill="#FFD1B6"/>
<path d="M25 2C25 0.89543 25.8954 0 27 0H46C47.1046 0 48 0.895431 48 2V21C48 22.1046 47.1046 23 46 23H27C25.8954 23 25 22.1046 25 21V2Z" fill="#FFD1B6"/>
<path d="M0 1C0 0.447715 0.447715 0 1 0H22C22.5523 0 23 0.447715 23 1V22C23 22.5523 22.5523 23 22 23H1C0.447715 23 0 22.5523 0 22V1Z" fill="#FFD1B6"/>
</g>
<defs>
<clipPath id="clip0_73_435">
<rect width="48" height="48" fill="white"/>
</clipPath>
</defs>
</svg>
